<svg width="100" height="200" viewBox="0 0 100 200" xmlns="http://www.w3.org/2000/svg">
  <defs>
    <filter id="shadow4">
      <feDropShadow dx="0" dy="2" stdDeviation="2" flood-color="#000" flood-opacity="0.5"/>
    </filter>
  </defs>
  <g filter="url(#shadow4)">
    <!-- Wheels -->
    <rect x="42" y="10" width="16" height="30" rx="3" fill="#1a1a1a" />
    <rect x="42" y="150" width="16" height="30" rx="3" fill="#1a1a1a" />
    <!-- Body -->
    <path d="M 48,45 L 38,70 L 40,130 L 50,145 L 60,130 L 62,70 Z" fill="#0066cc" />
    <!-- Tank/Details -->
    <path d="M 42,70 Q 50,65 58,70 L 58,100 Q 50,105 42,100 Z" fill="#004c99" />
    <!-- Seat -->
    <rect x="42" y="105" width="16" height="30" rx="4" fill="#222" />
    <!-- Handlebars -->
    <rect x="28" y="60" width="44" height="6" rx="2" fill="#aaa" />
    <!-- Panniers (Side bags) -->
    <rect x="25" y="120" width="12" height="30" rx="2" fill="#005580" />
    <rect x="63" y="120" width="12" height="30" rx="2" fill="#005580" />
    <!-- Windshield -->
     <path d="M 42,48 Q 50,42 58,48 L 58,58 L 42,58 Z" fill="#add8e6" opacity="0.7"/>
  </g>
</svg>
